<?xml version="1.0" standalone="no"?>
<!DOCTYPE svg PUBLIC "-//W3C//DTD SVG 1.1//EN" "http://www.w3.org/Graphics/SVG/1.1/DTD/svg11.dtd" >
<svg xmlns="http://www.w3.org/2000/svg">
<metadata></metadata>
<defs>
<font id="eight2empirepixel" horiz-adv-x="1024" >
<font-face units-per-em="2048" ascent="1544" descent="-504" />
<missing-glyph horiz-adv-x="512" />
<glyph horiz-adv-x="0" />
<glyph horiz-adv-x="2048" />
<glyph unicode=" "  horiz-adv-x="512" />
<glyph unicode="&#x09;" horiz-adv-x="512" />
<glyph unicode="&#xa0;" horiz-adv-x="512" />
<glyph unicode="!" horiz-adv-x="512" d="M0 0v256h256v-256h-256zM0 512v1024h256v-1024h-256z" />
<glyph unicode="&#x22;" d="M0 768v512h256v-512h-256zM512 768v512h256v-512h-256z" />
<glyph unicode="#" horiz-adv-x="1536" d="M0 256v256h256v256h-256v256h256v256h256v-256h256v256h256v-256h256v-256h-256v-256h256v-256h-256v-256h-256v256h-256v-256h-256v256h-256zM512 512h256v256h-256v-256z" />
<glyph unicode="$" d="M0 0v256h512v256h-512v768h256v256h256v-256h256v-256h-512v-256h512v-768h-256v-256h-256v256h-256z" />
<glyph unicode="%" horiz-adv-x="1280" d="M0 0v256h256v256h256v256h256v256h256v-256h-256v-256h-256v-256h-256v-256h-256zM0 768v256h256v-256h-256zM768 0v256h256v-256h-256z" />
<glyph unicode="&#x26;" horiz-adv-x="1280" d="M0 0v768h256v256h-256v256h256v256h512v-512h-256v-256h512v-256h-256v-256h256v-256h-256v256h-256v-256h-512zM256 256h256v512h-256v-512zM256 1024h256v256h-256v-256z" />
<glyph unicode="'" horiz-adv-x="512" d="M0 768v512h256v-512h-256z" />
<glyph unicode="(" horiz-adv-x="768" d="M0 0v1280h256v256h256v-256h-256v-1280h256v-256h-256v256h-256z" />
<glyph unicode=")" horiz-adv-x="768" d="M0 0v-256h256v256h256v1280h-256v256h-256v-256h256v-1280h-256z" />
<glyph unicode="*" d="M0 768v256h256v256h-256v256h256v-256h256v256h256v-256h-256v-256h256v-256h-256v256h-256v-256h-256z" />
<glyph unicode="+" d="M0 512v256h256v256h256v-256h256v-256h-256v-256h-256v256h-256z" />
<glyph unicode="," horiz-adv-x="512" d="M0 256h256v-512h-256v512z" />
<glyph unicode="-" d="M0 512v256h768v-256h-768z" />
<glyph unicode="." horiz-adv-x="512" d="M0 0v256h256v-256h-256z" />
<glyph unicode="/" d="M0 0v512h256v256h256v512h256v-512h-256v-256h-256v-512h-256z" />
<glyph unicode="0" d="M0 0v1024h256v256h512v-1024h-256v-256h-512zM256 256h256v768h-256v-768z" />
<glyph unicode="1" d="M0 0v256h256v512h-256v256h256v256h256v-1024h256v-256h-768z" />
<glyph unicode="2" d="M0 0v256h256v256h256v512h-256v-256h-256v512h512v-256h256v-512h-256v-256h256v-256h-768z" />
<glyph unicode="3" d="M0 -256v512h256v-256h256v512h-256v256h256v256h-512v256h768v-512h-256v-256h256v-512h-256v-256h-512z" />
<glyph unicode="4" d="M0 0v768h256v512h256v-512h-256v-512h256v256h256v-768h-256v256h-512z" />
<glyph unicode="5" d="M0 512v768h768v-256h-512v-256h512v-768h-256v-256h-256v256h256v512h-512z" />
<glyph unicode="6" d="M0 256v1024h256v256h256v-256h-256v-256h256v-256h256v-512h-256v-256h-256v256h-256zM256 256h256v512h-256v-512z" />
<glyph unicode="7" d="M0 1024v256h768v-768h-256v-768h-256v768h256v512h-512z" />
<glyph unicode="8" d="M0 0v768h256v256h-256v256h256v256h512v-512h-256v-256h256v-512h-256v-256h-512zM256 256h256v512h-256v-512zM256 1024h256v256h-256v-256z" />
<glyph unicode="9" d="M0 512v512h256v256h256v-256h256v-1024h-256v-256h-256v256h256v256h-256v256h-256zM256 512h256v512h-256v-512z" />
<glyph unicode=":" horiz-adv-x="512" d="M0 0v256h256v-256h-256zM0 768v256h256v-256h-256z" />
<glyph unicode=";" horiz-adv-x="512" d="M0 256h256v-512h-256v512zM0 768v256h256v-256h-256z" />
<glyph unicode="&#x3c;" d="M0 512v256h256v256h256v256h256v-256h-256v-256h-256v-256h256v-256h256v-256h-256v256h-256v256h-256z" />
<glyph unicode="=" d="M0 256v256h768v-256h-768zM0 768v256h768v-256h-768z" />
<glyph unicode="&#x3e;" d="M0 0h256v256h256v256h256v256h-256v256h-256v256h-256v-256h256v-256h256v-256h-256v-256h-256v-256z" />
<glyph unicode="?" d="M0 1024v512h768v-1024h-256v-256h-256v512h256v512h-256v-256h-256zM256 0h256v-256h-256v256z" />
<glyph unicode="@" horiz-adv-x="1792" d="M0 0v1024h256v256h1024v-256h256v-768h-256v-256h-256v256h-512v512h512v-512h256v768h-1024v-1024h512v-256h-512v256h-256z" />
<glyph unicode="A" d="M0 0v1024h256v256h512v-1280h-256v256h-256v-256h-256zM256 512h256v384h-256v-384z" />
<glyph unicode="B" d="M0 0v1280h768v-512h-256v-256h256v-256h-256v-256h-512zM256 256h256v256h-256v-256zM256 768h256v256h-256v-256z" />
<glyph unicode="C" d="M0 256v1024h768v-256h-512v-768h512v-256h-512v256h-256z" />
<glyph unicode="D" d="M0 0v1280h512v-256h256v-768h-256v-256h-512zM256 256h256v768h-256v-768z" />
<glyph unicode="E" d="M0 0v1280h768v-256h-512v-256h256v-256h-256v-256h512v-256h-768z" />
<glyph unicode="F" d="M0 0v1280h768v-256h-512v-512h256v-256h-256v-256h-256z" />
<glyph unicode="G" horiz-adv-x="1280" d="M0 0v1024h256v256h512v-256h-512v-768h512v256h-256v256h512v-768h-1024z" />
<glyph unicode="H" d="M0 0v1280h256v-768h256v768h256v-1280h-256v256h-256v-256h-256z" />
<glyph unicode="I" horiz-adv-x="512" d="M0 0v1280h256v-1280h-256z" />
<glyph unicode="J" d="M0 0v512h256v-256h256v768h-256v256h512v-1024h-256v-256h-512z" />
<glyph unicode="K" d="M0 0v1280h256v-256h256v256h256v-256h-256v-256h256v-768h-256v768h-256v-768h-256z" />
<glyph unicode="L" d="M0 0v1280h256v-1024h512v-256h-768z" />
<glyph unicode="M" horiz-adv-x="1536" d="M0 0v1280h512v-256h256v256h256v-256h256v-1024h-256v1024h-256v-1024h-256v1024h-256v-1024h-256z" />
<glyph unicode="N" d="M0 0v1280h512v-256h256v-1024h-256v1024h-256v-1024h-256z" />
<glyph unicode="O" d="M0 0v1024h256v256h512v-1024h-256v-256h-512zM256 256h256v768h-256v-768z" />
<glyph unicode="P" d="M0 -256v1536h768v-768h-256v-256h-256v-512h-256zM256 512h256v512h-256v-512z" />
<glyph unicode="Q" d="M0 0v1024h256v256h512v-1280h-256v-256h-256v256h-256zM256 256h256v768h-256v-768z" />
<glyph unicode="R" d="M0 0v1280h768v-512h-256v-256h256v-512h-256v512h-256v-512h-256zM256 768h256v256h-256v-256z" />
<glyph unicode="S" d="M0 0v256h512v256h-256v256h-256v512h512v-256h-256v-256h512v-768h-768z" />
<glyph unicode="T" d="M0 1024v256h768v-256h-256v-1024h-256v1024h-256z" />
<glyph unicode="U" d="M0 0v1280h256v-1024h256v1024h256v-1280h-768z" />
<glyph unicode="V" d="M0 256v1024h256v-1024h256v1024h256v-1024h-256v-256h-256v256h-256z" />
<glyph unicode="W" horiz-adv-x="1536" d="M0 0v1280h256v-1024h256v768h256v-768h256v1024h256v-1024h-256v-256h-256v256h-256v-256h-512z" />
<glyph unicode="X" d="M0 0v512h256v256h-256v512h256v-512h256v512h256v-512h-256v-256h256v-512h-256v512h-256v-512h-256z" />
<glyph unicode="Y" d="M0 512v768h256v-768h256v768h256v-768h-256v-512h-256v512h-256z" />
<glyph unicode="Z" d="M-2 0l2 512h256v256h256v256h-512v256h768v-512h-256v-256h-256v-256h512v-256h-770z" />
<glyph unicode="[" horiz-adv-x="768" d="M0 -256v1792h512v-256h-256v-1280h256v-256h-512z" />
<glyph unicode="\" d="M0 768v512h256v-512h256v-256h256v-512h-256v512h-256v256h-256z" />
<glyph unicode="]" horiz-adv-x="768" d="M0 0h256v1280h-256v256h512v-1792h-512v256z" />
<glyph unicode="^" d="M0 1024v256h256v256h256v-256h256v-256h-256v256h-256v-256h-256z" />
<glyph unicode="_" horiz-adv-x="1280" d="M0 0h1024v-256h-1024v256z" />
<glyph unicode="`" horiz-adv-x="768" d="M0 1024v256h256v-256h256v-256h-256v256h-256z" />
<glyph unicode="a" d="M0 0v768h256v256h512v-1024h-256v256h-256v-256h-256zM256 512h256v256h-256v-256z" />
<glyph unicode="b" d="M0 0v1536h256v-512h512v-768h-256v-256h-512zM256 256h256v512h-256v-512z" />
<glyph unicode="c" d="M0 0v768h256v256h512v-256h-512v-512h512v-256h-768z" />
<glyph unicode="d" d="M0 0v768h256v256h256v512h256v-1536h-768zM256 256h256v512h-256v-512z" />
<glyph unicode="e" d="M0 0v768h256v256h512v-768h-512v-256h256v-256h-256v256h-256zM256 512h256v256h-256v-256z" />
<glyph unicode="f" horiz-adv-x="768" d="M0 0v1280h256v256h256v-256h-256v-512h256v-256h-256v-512h-256z" />
<glyph unicode="g" d="M0 0v768h256v256h512v-1536h-512v256h256v256h-512zM256 256h256v512h-256v-512z" />
<glyph unicode="h" d="M0 0v1536h256v-512h256v-256h256v-768h-256v768h-256v-768h-256z" />
<glyph unicode="i" horiz-adv-x="512" d="M0 0v768h256v-768h-256zM0 1024v256h256v-256h-256z" />
<glyph unicode="j" horiz-adv-x="768" d="M0 -256h256v768h-256v256h512v-1024h-256v-256h-256v256zM256 1024v256h256v-256h-256z" />
<glyph unicode="k" d="M0 0v1536h256v-768h256v256h256v-256h-256v-256h256v-512h-256v512h-256v-512h-256z" />
<glyph unicode="l" horiz-adv-x="512" d="M0 0v1536h256v-1536h-256z" />
<glyph unicode="m" horiz-adv-x="1536" d="M0 0v1024h512v-256h256v256h256v-256h256v-768h-256v768h-256v-768h-256v768h-256v-768h-256z" />
<glyph unicode="n" d="M0 0v1024h512v-256h256v-768h-256v768h-256v-768h-256z" />
<glyph unicode="o" d="M0 0h512v256h256v768h-512v-256h-256v-768zM256 256v512h256v-512h-256z" />
<glyph unicode="p" d="M0 -512v1536h512v-256h256v-768h-512v-512h-256zM256 256h256v512h-256v-512z" />
<glyph unicode="q" d="M0 256v768h512v-256h256v-1280h-256v512h-256v256h-256zM256 256h256v512h-256v-512z" />
<glyph unicode="r" d="M0 0v768h256v256h512v-512h-256v256h-256v-768h-256z" />
<glyph unicode="s" d="M0 0v256h512v256h256v-256h-256v-256h-512zM0 512v512h512v-256h-256v-256h-256z" />
<glyph unicode="t" horiz-adv-x="768" d="M0 256v1024h256v-256h256v-256h-256v-512h256v-256h-256v256h-256z" />
<glyph unicode="u" d="M0 256v768h256v-768h256v768h256v-1024h-512v256h-256z" />
<glyph unicode="v" d="M0 256v768h256v-768h256v768h256v-768h-256v-256h-256v256h-256z" />
<glyph unicode="w" horiz-adv-x="1536" d="M0 256v768h256v-768h256v768h256v-768h256v768h256v-1024h-512v256h-256v-256h-256v256h-256z" />
<glyph unicode="x" d="M0 0v512h256v256h-256v256h256v-256h256v256h256v-256h-256v-256h256v-512h-256v512h-256v-512h-256z" />
<glyph unicode="y" d="M0 256v768h256v-768h256v768h256v-1280h-256v-256h-256v256h256v256h-256v256h-256z" />
<glyph unicode="z" d="M0 0v512h256v-256h512v-256h-768zM0 768v256h768v-512h-256v256h-512z" />
<glyph unicode="{" d="M0 512v256h256v512h256v256h256v-256h-256v-512h-256v-256h256v-512h256v-256h-256v256h-256v512h-256z" />
<glyph unicode="|" horiz-adv-x="512" d="M0 -256v1792h256v-1792h-256z" />
<glyph unicode="}" d="M0 0h256v512h256v256h-256v512h-256v256h256v-256h256v-512h256v-256h-256v-512h-256v-256h-256v256z" />
<glyph unicode="~" horiz-adv-x="1536" d="M0 512v256h256v256h512v-256h256v256h256v-256h-256v-256h-512v256h-256v-256h-256z" />
<glyph unicode="&#xa3;" horiz-adv-x="1536" d="M0 0v256h256v1024h256v256h512v-256h-512v-512h256v-256h-256v-256h512v256h256v-256h-256v-256h-1024z" />
<glyph unicode="&#xad;" d="M0 512v256h768v-256h-768z" />
<glyph unicode="&#x2000;" horiz-adv-x="768" />
<glyph unicode="&#x2001;" horiz-adv-x="1536" />
<glyph unicode="&#x2002;" horiz-adv-x="768" />
<glyph unicode="&#x2003;" horiz-adv-x="1536" />
<glyph unicode="&#x2004;" horiz-adv-x="512" />
<glyph unicode="&#x2005;" horiz-adv-x="384" />
<glyph unicode="&#x2006;" horiz-adv-x="256" />
<glyph unicode="&#x2007;" horiz-adv-x="256" />
<glyph unicode="&#x2008;" horiz-adv-x="192" />
<glyph unicode="&#x2009;" horiz-adv-x="307" />
<glyph unicode="&#x200a;" horiz-adv-x="85" />
<glyph unicode="&#x2010;" d="M0 512v256h768v-256h-768z" />
<glyph unicode="&#x2011;" d="M0 512v256h768v-256h-768z" />
<glyph unicode="&#x2012;" d="M0 512v256h768v-256h-768z" />
<glyph unicode="&#x2013;" horiz-adv-x="1280" d="M0 512v256h1024v-256h-1024z" />
<glyph unicode="&#x2014;" horiz-adv-x="2304" d="M0 512v256h2048v-256h-2048z" />
<glyph unicode="&#x202f;" horiz-adv-x="307" />
<glyph unicode="&#x205f;" horiz-adv-x="384" />
<glyph unicode="&#xe000;" horiz-adv-x="1025" d="M0 0v1025h1025v-1025h-1025z" />
</font>
</defs>
</svg>
